<svg width="56" height="40" viewBox="0 0 56 40" fill="none" xmlns="http://www.w3.org/2000/svg">
<rect x="21" y="33" width="5" height="4" fill="#4CA996"/>
<rect x="21" y="3" width="5" height="4" fill="#4CA996"/>
<rect x="21" y="13" width="5" height="10" fill="#4CA996"/>
<path d="M52.75 14.5C53.1273 14.5037 53.5035 14.5419 53.8739 14.6141C54.0725 14.6496 54.2764 14.6415 54.4716 14.5905C54.6668 14.5396 54.8486 14.4468 55.0044 14.3188C55.1596 14.1899 55.2844 14.0285 55.37 13.8459C55.4557 13.6633 55.5 13.4642 55.5 13.2625V7.625C55.4978 5.80231 54.7728 4.05489 53.4839 2.76605C52.1951 1.47721 50.4477 0.752183 48.625 0.75H7.375C5.55231 0.752183 3.80489 1.47721 2.51605 2.76605C1.22721 4.05489 0.502183 5.80231 0.5 7.625V13.2625C0.499957 13.4644 0.544361 13.6638 0.630058 13.8465C0.715756 14.0293 0.840645 14.191 0.995855 14.32C1.15107 14.4491 1.33279 14.5424 1.52812 14.5933C1.72346 14.6442 1.92761 14.6515 2.12607 14.6147C2.49643 14.5422 2.87264 14.5039 3.25 14.5C4.70869 14.5 6.10764 15.0795 7.13909 16.1109C8.17054 17.1424 8.75 18.5413 8.75 20C8.75 21.4587 8.17054 22.8576 7.13909 23.8891C6.10764 24.9205 4.70869 25.5 3.25 25.5C2.87266 25.4963 2.49645 25.4581 2.12607 25.3859C1.92749 25.3504 1.72358 25.3585 1.5284 25.4095C1.33323 25.4605 1.15143 25.5532 0.99555 25.6812C0.840441 25.8101 0.715625 25.9715 0.629976 26.1541C0.544328 26.3367 0.499951 26.5358 0.5 26.7375V32.375C0.502183 34.1977 1.22721 35.9451 2.51605 37.2339C3.80489 38.5228 5.55231 39.2478 7.375 39.25H48.625C50.4477 39.2478 52.1951 38.5228 53.4839 37.2339C54.7728 35.9451 55.4978 34.1977 55.5 32.375V26.7375C55.5002 26.5358 55.4559 26.3365 55.3704 26.1539C55.2848 25.9712 55.1601 25.8096 55.005 25.6807C54.849 25.5528 54.6672 25.4601 54.4721 25.4092C54.2769 25.3582 54.0731 25.35 53.8745 25.3853C53.5039 25.4578 53.1275 25.4962 52.75 25.5C51.2913 25.5 49.8924 24.9205 48.8609 23.8891C47.8295 22.8576 47.25 21.4587 47.25 20C47.25 18.5413 47.8295 17.1424 48.8609 16.1109C49.8924 15.0795 51.2913 14.5 52.75 14.5ZM52.75 28.25V32.375C52.7488 33.4686 52.3138 34.5171 51.5404 35.2904C50.7671 36.0638 49.7186 36.4988 48.625 36.5H7.375C6.28136 36.4988 5.23287 36.0638 4.45955 35.2904C3.68623 34.5171 3.25124 33.4686 3.25 32.375V28.25C5.43804 28.25 7.53645 27.3808 9.08363 25.8336C10.6308 24.2865 11.5 22.188 11.5 20C11.5 17.812 10.6308 15.7135 9.08363 14.1664C7.53645 12.6192 5.43804 11.75 3.25 11.75V7.625C3.25124 6.53136 3.68623 5.48287 4.45955 4.70955C5.23287 3.93623 6.28136 3.50124 7.375 3.5H48.625C49.7186 3.50124 50.7671 3.93623 51.5404 4.70955C52.3138 5.48287 52.7488 6.53136 52.75 7.625V11.75C50.562 11.75 48.4635 12.6192 46.9164 14.1664C45.3692 15.7135 44.5 17.812 44.5 20C44.5 22.188 45.3692 24.2865 46.9164 25.8336C48.4635 27.3808 50.562 28.25 52.75 28.25Z" fill="#616161"/>
</svg>
